<svg xmlns="http://www.w3.org/2000/svg" xmlns:xlink="http://www.w3.org/1999/xlink" width="100" height="100" viewBox="0 0 100 100">
  <defs>
    <linearGradient id="linear-gradient" x1="0.784" y1="0.939" x2="0.22" y2="0.067" gradientUnits="objectBoundingBox">
      <stop offset="0" stop-color="#fff"/>
      <stop offset="0.411" stop-color="#eaebeb"/>
      <stop offset="0.506" stop-color="#e3e5e6"/>
      <stop offset="1" stop-color="#c6ccd0"/>
    </linearGradient>
    <linearGradient id="linear-gradient-2" x1="0.146" y1="0.138" x2="0.841" y2="0.848" gradientUnits="objectBoundingBox">
      <stop offset="0" stop-color="#fff"/>
      <stop offset="0.411" stop-color="#eaebeb"/>
      <stop offset="0.801" stop-color="#a5adb0"/>
      <stop offset="1" stop-color="#889297"/>
    </linearGradient>
    <linearGradient id="linear-gradient-3" x1="0.225" y1="0.145" x2="0.824" y2="0.919" gradientUnits="objectBoundingBox">
      <stop offset="0.004" stop-color="#ff9100"/>
      <stop offset="0.168" stop-color="#ff7f00"/>
      <stop offset="0.494" stop-color="#ff5100"/>
      <stop offset="0.95" stop-color="#ff0700"/>
      <stop offset="0.996" stop-color="red"/>
    </linearGradient>
    <filter id="Ellipse_4" x="4" y="28" width="92.718" height="50.074" filterUnits="userSpaceOnUse">
      <feOffset input="SourceAlpha"/>
      <feGaussianBlur stdDeviation="1" result="blur"/>
      <feFlood flood-opacity="0.451"/>
      <feComposite operator="in" in2="blur"/>
      <feComposite in="SourceGraphic"/>
    </filter>
    <linearGradient id="linear-gradient-4" x1="0.775" y1="0.855" x2="0.176" y2="0.081" xlink:href="#linear-gradient-3"/>
    <clipPath id="clip-iPhone_X_XS_11_Pro_3">
      <rect width="100" height="100"/>
    </clipPath>
  </defs>
  <g id="iPhone_X_XS_11_Pro_3" data-name="iPhone X, XS, 11 Pro – 3" clip-path="url(#clip-iPhone_X_XS_11_Pro_3)">
    <path id="Path_37" data-name="Path 37" d="M1426.075,615.648a49.789,49.789,0,1,1-49.789-49.791A49.789,49.789,0,0,1,1426.075,615.648Z" transform="translate(-1326.446 -565.711)" fill="url(#linear-gradient)"/>
    <path id="Path_38" data-name="Path 38" d="M1376.286,665.647a50,50,0,1,1,50-50A50.057,50.057,0,0,1,1376.286,665.647Zm0-98.948a48.948,48.948,0,1,0,48.945,48.948A49,49,0,0,0,1376.286,566.7Z" transform="translate(-1326.446 -565.711)" fill="url(#linear-gradient-2)"/>
    <g transform="matrix(1, 0, 0, 1, 0, 0)" filter="url(#Ellipse_4)">
      <ellipse id="Ellipse_4-2" data-name="Ellipse 4" cx="43.359" cy="22.037" rx="43.359" ry="22.037" transform="translate(7 31)" fill="url(#linear-gradient-3)"/>
    </g>
    <ellipse id="Ellipse_7" data-name="Ellipse 7" cx="42.436" cy="21.115" rx="42.436" ry="21.115" transform="translate(8 32)" fill="url(#linear-gradient-4)"/>
  </g>
</svg>
